<?xml version="1.0" encoding="utf-8"?>
<!-- Generator: Adobe Illustrator 27.3.1, SVG Export Plug-In . SVG Version: 6.00 Build 0)  -->
<svg version="1.1" id="Layer_1" xmlns="http://www.w3.org/2000/svg" xmlns:xlink="http://www.w3.org/1999/xlink" x="0px" y="0px"
	 viewBox="0 0 265.2 265.2" style="enable-background:new 0 0 265.2 265.2;" xml:space="preserve">
<style type="text/css">
	.st0{fill:#0C6572;}
	.st1{fill:#B7EF81;}
	.st2{fill:#FFFFFF;}
</style>
<g>
	<g>
		<path class="st0" d="M133.6,19.3c-63.1,0-114.4,51.3-114.4,114.4S70.6,248,133.6,248h0c63.1,0,114.4-51.3,114.4-114.4
			S196.7,19.3,133.6,19.3z"/>
		<path class="st0" d="M133.6,2L133.6,2C60.9,2,2,60.9,2,133.6v0c0,72.7,58.9,131.6,131.6,131.6h0c72.7,0,131.6-58.9,131.6-131.6v0
			C265.2,60.9,206.3,2,133.6,2z M133.6,252.4c-65.5,0-118.8-53.3-118.8-118.8c0-65.5,53.3-118.8,118.8-118.8
			c65.5,0,118.8,53.3,118.8,118.8C252.4,199.1,199.1,252.4,133.6,252.4z"/>
	</g>
	<path class="st1" d="M128.5,132.5c-1.3,0.4-1.8,1.6-2.3,2.6c-8.1,17.2-17.4,33.9-24,51.8c-1.2,3.4-2.8,6.6-3.4,10.2
		c-0.4,2.2-1.7,4.1-3.1,5.7c-2.3,2.7-5.2,2.4-9.5,0c-4.3-2.5-7.1-6.5-9.7-10.7c-5.9-9.4-11.5-18.9-17.8-28.1
		c-2.5-3.7-5.3-7.3-7.3-11.3c-1.4-2.9-1.6-5.7,0.7-7.8c4.2-3.9,8.7-7.3,14.1-9.4c5-2,7.2-0.7,10.2,3.9c5,7.7,9.4,15.7,13.7,23.8
		c0.9,1.8,1.5,1.5,2.3,0c9.7-17.7,20.5-34.7,32.2-51.1c13.7-19,26.9-38.5,42.1-56.4c1.5-1.8,2.5-4.1,4.6-5.4
		c1.4-0.8,2.9-1.7,4.4-0.7c1.5,1,2.5,2.4,1.9,4.5c-3,2.9-5.3,6.3-7.4,10c-0.2,0.3-0.5,0.5-0.7,0.8c-11,16.8-22,33.7-32.2,51
		c-2.2,3.8-5,7.2-6.4,11.5C130.2,129.2,128.8,130.6,128.5,132.5z"/>
	<path class="st2" d="M170.2,64.3c2.1-3.6,4.4-7,7.4-10c0.8,2.2,0.1,4.5,0.1,6.8c-0.2,6.1-0.9,12.2-1.3,18.4c-0.6,9.5-1,19-1.4,28.5
		c-0.3,8.4-0.5,16.8-0.6,25.2c-0.1,20.4,1.6,40.6,4.1,60.8c0.5,3.9,0.7,7.8,1.1,11.8c0.4,4.5-0.9,6.7-4.3,7.3
		c-3.9,0.7-7.2-1.6-8.2-5.6c-1.1-4.6-1.2-9.2-1.5-13.9c-0.6-9.9-0.3-19.8-0.6-29.6c-0.2-8,0.1-16.1,0.2-24.1
		c0.1-2.9,0.4-5.8,0.6-8.8c0.1-1.8-0.3-2.8-2.6-2.5c-11.3,1.6-22.8,1.7-34.1,4.1c-0.3,0.1-0.5,0-0.8,0c0.3-1.9,1.7-3.3,2.3-5
		c4.2-0.5,8.4-0.9,12.6-1.2c6.8-0.4,13.7-0.8,20.5-1.9c1.6-0.3,2.6-0.8,2.7-2.8c0.6-12.7,1.2-25.4,2.6-38c0.5-4.7,1-9.5,1.2-14.2
		C170.5,67.7,171.1,65.9,170.2,64.3z"/>
</g>
</svg>
